<?xml version="1.0" encoding="UTF-8"?>
<svg viewBox="0 0 125 125" xmlns="http://www.w3.org/2000/svg" xmlns:xlink="http://www.w3.org/1999/xlink">
 <defs>
  <linearGradient id="b">
   <stop stop-color="#fff" stop-opacity=".77513" offset="0"/>
   <stop stop-color="#fff" stop-opacity="0" offset="1"/>
  </linearGradient>
  <linearGradient id="f" x1=".52564" x2=".51923" y1=".10938" y2=".375">
   <stop stop-opacity=".52646" offset="0"/>
   <stop stop-opacity="0" offset="1"/>
  </linearGradient>
  <radialGradient id="e" cx=".54605" cy=".34375" r=".22525" fx=".5405" fy=".32031">
   <stop stop-color="#fff" stop-opacity=".66667" offset="0"/>
   <stop stop-color="#fff" stop-opacity="0" offset="1"/>
  </radialGradient>
  <radialGradient id="c" cx=".48684" cy=".46875" r=".69776">
   <stop stop-color="#fff" offset="0"/>
   <stop offset="1"/>
  </radialGradient>
  <radialGradient id="a" xlink:href="#b"/>
  <radialGradient id="d" cx=".2" cy=".32031" fx=".22" fy=".33594" xlink:href="#b"/>
 </defs>
 <path transform="translate(-4.1692 2.6959)" d="m65.305 72.63c4.7494 5.1836 7.7718 14.471 14.464 14.471 6.4765-1.7998 7.34-17.207 8.2035-20.518-7.34 5.0396-14.896 7.9193-22.668 6.0475z" fill="#fff" fill-rule="evenodd" stroke="#000" stroke-linecap="round" stroke-linejoin="round" stroke-width="3.75"/>
 <path transform="matrix(.44086 0 0 .44106 -.92107 18.904)" d="m211.22 70.291a60.942 57.825 0 1 0 -121.88 0 60.942 57.825 0 1 0 121.88 0z" fill="#ce8b71" fill-rule="evenodd" stroke="#000" stroke-linecap="round" stroke-linejoin="round" stroke-width="8.5042"/>
 <path transform="translate(-4.1692 2.6959)" d="m36.307 99.437c-0.39064 25.196 64.239 28.078 64.082 0 1.5448-22.329-9.5604-35.024-12.32-32.866-1.4012 1.096-1.9219 25.436-11.39 19.837-4.6029-2.7218-9.7513-13.177-12.004-13.524-3.3991-0.5234-9.9078-3.2755-15.886-8.4262-1.5683-1.3513-11.954 12.539-12.483 34.979z" fill="#7daf4b" fill-rule="evenodd" stroke="#000" stroke-linecap="round" stroke-linejoin="round" stroke-width="3.75"/>
 <path transform="translate(-4.1692 2.6959)" d="m99.864 35.719c-50.723 11.801-40.64-26.585-46.757 9.8524-16.865-10.759-4.5592 15.07-8.6524 13.77-17.228-5.4714-16.867-44.829 7.3819-54.045 40.387-12.319 49.382 21.073 48.027 30.422z" fill="#624a38" fill-rule="evenodd" stroke="#000" stroke-linecap="round" stroke-linejoin="round" stroke-width="3.75"/>
 <path d="m53.875 3.4062c-18.322 1.7773-30.103 20.894-28.065 38.279 0.15095 8.8512 4.869 19.988 14.502 21.502 5.1764-3.8219-1.4164-11.444 1.375-16.281 6.6126 5.2205 10.123-0.03465 9.7098-7.0232-0.35182-7.7743 3.6326-4.3445 8.1758-1.3278 11.344 4.9019 25.161 4.1474 36.376 0.26724 2.7424-6.9772-1.155-15.645-5.0355-21.818-7.34-12.785-23.441-16.403-37.039-13.599z" fill="url(#e)" fill-rule="evenodd"/>
 <path transform="translate(-4.1692 2.6959)" d="m61.264 3.5969c-3.521 0.33139-8.4679 1.327-11.009 3.1275-5.5156 10.148-6.7865 17.57-6.6943 32.47-7.4884 7.5094 1.56 15.561 7.5588 15.282 4.492 8.8769 25.049 16.084 26.314 7.3487 0.75117-10.865-15.348 2.0723-21.665-11.007 2.4298-4.2543 2.9854-10.638-5.3181-13.011-1.5342-10.394 2.1059-21.975 10.814-34.211z" fill="url(#c)" fill-rule="evenodd"/>
 <path d="m54.074 33.284c-1.3193-0.29716-1.6367 1.8442-2.8438 9.4375 4.2983 2.9714 3.6688 7.8122 1.6875 11.281 6.3175 13.079 22.407 0.16658 21.656 11.031-1.2647 8.7352-21.82 1.5332-26.312-7.3438-2.1242 0.09885-4.6057-0.90358-6.625-2.5 0.42724 2.4829 0.87013 4.7636 0.8125 6.125 4.3174 8.6069 13.483 14.594 24.188 14.594 14.83 0 26.875-11.421 26.875-25.5 0-3.6981-0.88153-7.202-2.375-10.375-27.318 4.7272-34.348-6.1387-37.062-6.75z" fill="url(#f)" fill-rule="evenodd"/>
 <path d="m56.881 6.65c-3.521 0.33139-8.4679 1.327-11.009 3.1275-5.5156 10.148-6.7865 17.57-6.6943 32.47-7.4884 7.5094 1.56 15.561 7.5588 15.282 4.492 8.8769 25.049 16.084 26.314 7.3487 0.75116-10.865-15.348 2.0723-21.665-11.007 2.4298-4.2543 2.9854-10.638-5.3181-13.011-1.5342-10.394 2.1059-21.975 10.814-34.211z" fill="url(#a)" fill-rule="evenodd" stroke="url(#a)" stroke-linecap="round" stroke-linejoin="round" stroke-width="3.1689"/>
 <path d="m41.188 79.562c-3.2123 8.7557-6.3936 19.144-3.2543 28.083 8.6104 11.954 25.638 12.034 38.819 9.8341 8.9001-1.5718 17.455-9.1647 15.564-18.885 0.08741-7.6716-1.4812-15.565-5.6904-22.063-1.0619 6.9444-3.2846 18.297-12.405 17.684-9.802-1.979-11.637-15.347-21.869-16.696-4.3768-2.651-8.7982-6.986-10.449 0.77196l-0.71468 1.2706z" fill="url(#d)" fill-rule="evenodd"/>
</svg>
