<?xml version="1.0" encoding="UTF-8"?>
<svg viewBox="0 0 100 100" xmlns="http://www.w3.org/2000/svg" xmlns:xlink="http://www.w3.org/1999/xlink">
 <defs>
  <linearGradient id="a">
   <stop stop-color="#e1deb7" offset="0"/>
   <stop stop-color="#a8b076" offset="1"/>
  </linearGradient>
  <linearGradient id="d" x1="12.655" x2="45.75" y1="72.177" y2="104.88" gradientTransform="scale(1.1209,.89214)" gradientUnits="userSpaceOnUse" xlink:href="#a"/>
  <linearGradient id="c" x1="50.29" x2="68.798" y1="51.775" y2="74.013" gradientUnits="userSpaceOnUse" xlink:href="#a"/>
  <linearGradient id="b" x1="84.089" x2="109.38" y1="20.531" y2="46.206" gradientTransform="scale(.88021,1.1361)" gradientUnits="userSpaceOnUse" xlink:href="#a"/>
 </defs>
 <path d="m80.219 13.781c-13.934 0.65516-20.901 15.31-24.219 27.031-3.5484 2.2979-8.9801 4.8437-10.281 8.625 0.50836 2.2233-4.1499 3.4702-8.5312 5.5938-13.806 0.82317-29.709 7.5718-34.656 21.469-3.1169 12.113 8.34 24.267 20.621 22.149 11.441-1.3017 23.608-6.5642 30.161-16.337 7.9323-2.4946 13.941-9.0378 19.531-14.375 15.059 0.00411 22.847-16.358 25.127-29.167 2.9798-10.913-3.8372-24.232-15.935-24.794-0.59359 0.14596-1.2285-0.4056-1.8169-0.19513zm1.6562 13.562c6.6752 4.5113 1.9174 14.216-0.73031 20.083-2.5526 6.4823-1.4152-5.7372-5.8753-6.719-5.8709-1.2331-3.0513-5.4216-0.82063-9.0201 1.6253-2.4229 4.1387-5.357 7.4262-4.3439zm-30.688 19.906c-1.8951 3.1306-1.1915-2.0009 0 0zm5.9375 9.0938c3.1737 4.5452 2.7514 7.7395-2.3125 10.75-3.3081-4.1362-3.6747-8.2543 1.8125-10.875 0.21268-0.10738 0.65459-0.82247 0.5 0.125zm-23.125 17.125c1.0527 5.0232 4.4483 8.413-2.8828 9.5862-4.7039 2.4316-14.928 5.0784-15.68-2.6174 2.7032-7.3456 11.699-10.316 18.781-11.781l-0.21875 4.8125z"/>
 <path d="m36.831 56.959c-7.0871 0.02878-13.895 2.6854-20.047 6.0126-5.4824 3.0813-10.713 7.6707-12.402 13.953-1.4429 5.5474 0.70661 11.665 4.7474 15.59 4.2419 3.9646 10.492 4.744 16.033 3.9061 6.4478-1.0206 12.604-3.6073 18.113-7.0686 4.9492-3.2009 9.4212-7.9227 10.435-13.93 0.78035-5.1091-0.33664-9.2953-4.0054-12.888-2.4363 2.6966-4.334 4.7893-4.6505 7.4318-0.16545 1.4383 0.31036 2.5895-0.20371 4.1847-0.73106 3.7435-4.3562 6.0722-7.4108 7.9872-4.5757 2.6211-9.5803 4.8046-14.88 5.3106-3.0253 0.27722-6.6416-0.40624-8.2847-3.2526-1.5329-2.3501-1.2159-5.5257 0.47502-7.7051 3.1051-4.1738 8.0068-6.4506 12.717-8.3266 2.8678-1.0729 5.0747-1.9116 8.1579-1.9392 0.72207-3.2034 2.0085-6.2144 3.8274-8.9334-1.1888-0.20392-1.4159-0.32477-2.6225-0.33278z" fill="url(#d)"/>
 <path d="m66.887 39.968c-4.8912 0.16916-9.6628 1.8393-13.672 4.6304-1.9852 1.377-3.8729 2.9005-5.6409 4.5533l0.32466 2.6906 3.5712-3.4089-1.1363 5.0322 3.7336-2.2726-1.1363 4.3829 2.4796-1.1363c0.76341-0.69392 1.5377-1.376 2.3294-2.0332 1.8296-1.4546 3.8841-2.8586 6.1157-3.7376 1.4688-0.54914 3.352-0.47231 4.395 0.84411 1.6371 1.2784 0.48001 2.4395 0.86034 3.8038 1.5751 2.3454 4.747 2.8982 7.4516 1.7989 1.028-3.1921 1.3541-4.9312 0.54715-8.2404-1.1709-3.8598-4.9375-6.8935-9.0255-6.9071-0.39885-0.01638-0.7983-0.01444-1.1972 0zm-23.051 13.1c-1.325 1.5434-2.5633 3.1604-3.6808 4.8577-0.70025 1.3535-1.8308 3.0298-2.4633 4.6304-1.4358 3.4274-2.059 7.2179-1.814 10.925 0.2385 2.8856 0.8745 5.043 3.489 6.4146 2.2051-1.7976 4.8635-3.6807 4.6558-6.6865-1.164-1.4615-0.36968-3.3917 0.48293-4.8861 1.5977-3.1838 3.6264-6.1101 5.9372-8.8023l-1.5705 0.60062 0.32466-3.7336-3.8959 2.1103 1.461-4.5452-3.7336 4.5452 1.2986-4.7075s-0.35212-0.51103-0.49104-0.72236zm18.073 9.4327c-2.8588 3.2216-3.7402 4.9854-7.2312 7.5133 0.87353 3.4488 0.18988 7.057-1.4647 10.186 7.2177-2.369 11.537-6.33 16.456-11.956 0.96342-0.8926 1.3754-1.596-0.18668-1.672-2.6153-0.77517-5.6944-2.0707-7.5733-4.0718z" fill="url(#c)"/>
 <path d="m80.322 15.685c-5.8881-0.12436-11.078 3.667-14.468 8.2105-3.792 5.1234-6.7924 11.159-8.2451 17.338 2.3547-1.5792 8.3694-2.5656 10.871-2.2475 1.6845-4.5901 3.6764-9.3654 7.6449-12.438 2.3437-1.9368 5.9266-2.0232 8.3132-0.12721 2.8882 2.2492 3.0479 6.3497 2.5921 9.6827-0.79172 4.9521-2.6109 9.7364-5.1329 14.062-1.8344 2.9537-4.4727 6.1206-8.1881 6.4261-3.0925 0.21662-5.9882-1.6416-6.6636-4.668-0.65223-0.88204-0.02578-2.7987-0.90744-2.8382-1.2875-0.37924-4.5296 1.2764-7.5307 3.6817 0.45001 5.0422 2.1008 8.3878 6.6023 10.851 4.4841 2.5852 10.272 3.1923 14.953 0.73668 5.5215-2.7368 9.2211-8.0661 11.786-13.5 3.0037-6.6519 5.3296-14.055 4.1832-21.423-0.67778-4.6792-3.3662-9.1463-7.5944-11.415-2.505-1.3935-5.3375-2.2847-8.2163-2.3324z" fill="url(#b)"/>
</svg>
