<?xml version="1.0" encoding="UTF-8"?>
<svg viewBox="0 0 125 125" xmlns="http://www.w3.org/2000/svg" xmlns:xlink="http://www.w3.org/1999/xlink">
 <defs>
  <linearGradient id="a">
   <stop stop-color="#fff" stop-opacity=".60317" offset="0"/>
   <stop stop-color="#fff" stop-opacity="0" offset="1"/>
  </linearGradient>
  <linearGradient id="f" x1=".9375" x2="-.4125" y1=".08594" y2=".89844">
   <stop stop-color="#fff" offset="0"/>
   <stop offset="1"/>
  </linearGradient>
  <linearGradient id="e" x2="0" y1=".08594" y2=".35938">
   <stop stop-opacity=".52646" offset="0"/>
   <stop stop-opacity="0" offset="1"/>
  </linearGradient>
  <radialGradient id="d" cx=".24667" cy=".30469" r=".50667" fy=".29688">
   <stop stop-color="#fff" offset="0"/>
   <stop stop-color="#fff" stop-opacity="0" offset="1"/>
  </radialGradient>
  <radialGradient id="c" cx=".41176" cy=".17188" r=".29422" fy=".16406" xlink:href="#a"/>
  <radialGradient id="b" r=".77883" xlink:href="#a"/>
 </defs>
 <path transform="translate(-8.6257 2.1594)" d="m65.305 72.63c4.7494 5.1836 7.7718 14.471 14.464 14.471 6.4765-1.7998 7.34-17.207 8.2035-20.518-7.34 5.0396-14.896 7.9193-22.668 6.0475z" fill="#fff" fill-rule="evenodd" stroke="#000" stroke-linecap="round" stroke-linejoin="round" stroke-width="3.75"/>
 <path transform="matrix(.44086 0 0 .44106 -5.3775 18.368)" d="m211.22 70.291a60.942 57.825 0 1 0 -121.88 0 60.942 57.825 0 1 0 121.88 0z" fill="#cf997b" fill-rule="evenodd" stroke="#000" stroke-linecap="round" stroke-linejoin="round" stroke-width="8.5042"/>
 <path transform="translate(-8.6257 2.1594)" d="m36.307 99.437c-0.39064 25.196 64.239 28.078 64.082 0 1.5448-22.329-9.5604-35.024-12.32-32.866-1.4012 1.096-1.9219 25.436-11.39 19.837-4.6029-2.7218-9.7513-13.177-12.004-13.524-3.3991-0.5234-9.9078-3.2755-15.886-8.4262-1.5683-1.3513-11.954 12.539-12.483 34.979z" fill="#9e9e97" fill-rule="evenodd" stroke="#000" stroke-linecap="round" stroke-linejoin="round" stroke-width="3.75"/>
 <path transform="translate(-8.6257 2.1594)" d="m40.63 36.454c0.04084 6.9044 32.071 9.8967 47.001 2.2623-3.4568 29.15 15.595 33.016 1.3072 60.046-4.587 8.6778 52.859-24.507 10.981-79.264-1.7015-21.378-55.503-27.895-59.29 16.956z" fill="#c50000" fill-rule="evenodd" stroke="#000" stroke-linecap="round" stroke-linejoin="round" stroke-width="3.75"/>
 <path d="m36.188 79.5c-3.0773 8.6847-6.2192 18.943-3.1046 27.775 8.3703 11.836 25.251 11.999 38.24 10.019 9.0942-1.4697 18.066-9.0645 16.149-19.044 0.09097-7.6621-1.4894-15.542-5.6904-22.032-1.0854 6.9234-3.3061 18.269-12.405 17.653-9.8093-1.9751-11.579-15.438-21.872-16.689-4.7944-3.593-9.1887-6.0123-10.988 1.7225l-0.32893 0.59428z" fill="url(#d)" fill-rule="evenodd"/>
 <path d="m55.769 10.156c-11.844 3.5566-20.472 15.187-20.938 27.469 11.117 5.4699 24.426 4.1225 35.982 1.2355 5.5769-4.8654 13.221 1.8192 10.657 8.2464-1.1557 15.672 11.195 30.641 4.7667 46.268 16.793-14.253 18.975-40.554 7.2518-58.651-3.7999-5.9794-7.3405-12.178-10.46-18.425-6.5074-7.4768-18.21-7.9147-27.261-6.1431z" fill="url(#c)" fill-rule="evenodd"/>
 <path d="m69.87 5.2666c3.521 0.33139 8.4678 1.327 11.009 3.1275 5.5156 10.148 6.7865 17.57 6.6943 32.47 7.4884 7.5094-1.56 15.561-7.5588 15.282-4.492 8.8769-25.049 16.084-26.314 7.3487-0.75117-10.865 15.348 2.0723 21.665-11.007-2.4298-4.2543-2.9854-10.638 5.3181-13.011 1.5342-10.394-2.1059-21.975-10.814-34.211z" fill="url(#f)" fill-rule="evenodd" stroke="#000" stroke-linecap="round" stroke-linejoin="round" stroke-width="3.1689"/>
 <path d="m68.465 5.265c3.521 0.33139 8.4678 1.327 11.009 3.1275 5.5156 10.148 6.7865 17.57 6.6943 32.47 7.4884 7.5094-1.56 15.561-7.5588 15.282-4.492 8.8769-25.049 16.084-26.314 7.3487-0.75117-10.865 15.348 2.0723 21.665-11.007-2.4298-4.2543-2.9854-10.638 5.3181-13.011 1.5342-10.394-2.1059-21.975-10.814-34.211z" fill="url(#b)" fill-rule="evenodd"/>
 <path d="m34.606 42.334c-0.75693 2.3555-1.2812 4.7854-1.2812 7.375 0 14.079 12.013 25.5 26.844 25.5 8.4733 0 15.95-3.8016 20.875-9.625-0.83953-2.6-1.6808-5.3077-2.25-8.4062-5.1932 8.5375-24.551 15.154-25.781 6.6562-0.75117-10.865 15.339 2.0793 21.656-11-1.7994-3.1505-2.5306-7.4453 0.5625-10.438-12.654 4.7755-32.925 3.8175-40.625-0.0625z" fill="url(#e)" fill-rule="evenodd"/>
</svg>
