<?xml version="1.0" encoding="UTF-8"?>
<svg viewBox="0 0 470.86578 472.66425" xmlns="http://www.w3.org/2000/svg">
 <defs>
  <filter id="f">
   <feGaussianBlur stdDeviation="1.86799"/>
  </filter>
  <filter id="e">
   <feGaussianBlur stdDeviation="2.62954"/>
  </filter>
  <linearGradient id="d" x1="251.37" x2="267.29" y1="174.61" y2="400.85" gradientUnits="userSpaceOnUse">
   <stop stop-color="#fff" offset="0"/>
   <stop stop-color="#c3c3c3" offset="1"/>
  </linearGradient>
  <linearGradient id="c" x1="222.58" x2="224.8" y1="208.18" y2="415.41" gradientUnits="userSpaceOnUse">
   <stop stop-color="#ff7f00" offset="0"/>
   <stop stop-color="#e64500" offset="1"/>
  </linearGradient>
  <linearGradient id="b" x1="255.97" x2="253.77" y1="47.9" y2="269.67" gradientUnits="userSpaceOnUse">
   <stop stop-color="#fff" offset="0"/>
   <stop stop-color="#fff" stop-opacity="0" offset="1"/>
  </linearGradient>
  <linearGradient id="a" x2="0" y1="289.23" y2="469.9" gradientUnits="userSpaceOnUse">
   <stop stop-color="#fff" stop-opacity="0" offset="0"/>
   <stop stop-color="#f00" offset="1"/>
  </linearGradient>
 </defs>
 <g transform="translate(-21.35 -14.155)">
  <path d="m102.09 19.058h315.4a74.725 74.725 0 0 1 74.725 74.725v318.31a74.725 74.725 0 0 1 -74.725 74.725h-315.4a74.725 74.725 0 0 1 -74.725 -74.725v-318.31a74.725 74.725 0 0 1 74.725 -74.725" filter="url(#e)" opacity=".34733"/>
  <path d="m96.075 14.155h315.4a74.725 74.725 0 0 1 74.725 74.725v318.31a74.725 74.725 0 0 1 -74.725 74.725h-315.4a74.725 74.725 0 0 1 -74.725 -74.725v-318.31a74.725 74.725 0 0 1 74.725 -74.725" fill="url(#c)"/>
  <path d="m408.73 477.01c39.68 0 71.625-33.845 71.625-75.886v-186.62c0-42.04-31.945-75.886-71.625-75.886h-309.94c-39.68 0-71.625 33.845-71.625 75.886v186.62c0 42.04 31.945 75.886 71.625 75.886h309.94z" fill="url(#a)" opacity=".22519"/>
  <g transform="translate(0 3.3387)" filter="url(#f)" opacity=".50382">
   <path transform="translate(2.9114 1.9409)" d="m174.68 364.01a45.126 45.126 0 1 1 -90.253 0 45.126 45.126 0 1 1 90.253 0z"/>
   <path d="m94.906 191.94c-1.59 0-3.1684 0.02068-4.75 0.0625v65.406c1.5819-0.0492 3.1599-0.0625 4.75-0.0625 80.679 0 146.16 65.477 146.16 146.16 0 0.55373-0.02278 1.1028-0.03125 1.6562h65.406c0.00293-0.55309 0.03125-1.1034 0.03125-1.6562 0-116.78-94.781-211.56-211.56-211.56z"/>
   <path d="m90.156 76.625v62.25c145.97 4.4142 263.9 120.9 270.59 266.28h54.625c0.00626-0.82497 0.03125-1.6427 0.03125-2.4688 1e-5 -179.71-145.64-325.61-325.25-326.06z"/>
  </g>
  <g fill="url(#d)">
   <path transform="translate(2.9114 1.9409)" d="m174.68 364.01a45.126 45.126 0 1 1 -90.253 0 45.126 45.126 0 1 1 90.253 0z"/>
   <path d="m94.906 191.94c-1.59 0-3.1684 0.02068-4.75 0.0625v65.406c1.5819-0.0492 3.1599-0.0625 4.75-0.0625 80.679 0 146.16 65.477 146.16 146.16 0 0.55373-0.02278 1.1028-0.03125 1.6562h65.406c0.00293-0.55309 0.03125-1.1034 0.03125-1.6562 0-116.78-94.781-211.56-211.56-211.56z"/>
   <path d="m90.156 76.625v62.25c145.97 4.4142 263.9 120.9 270.59 266.28h54.625c0.00626-0.82497 0.03125-1.6427 0.03125-2.4688 1e-5 -179.71-145.64-325.61-325.25-326.06z"/>
  </g>
  <path d="m98.595 16.382c-40.735 0-73.523 32.788-73.523 73.523v200.24c66.811-70.223 183.55-116.79 316.29-116.79 49.91 0 97.531 6.5966 141.11 18.542v-102c0-40.735-32.788-73.523-73.523-73.523h-310.36z" fill="url(#b)" opacity=".4771"/>
 </g>
</svg>
